<svg xmlns="http://www.w3.org/2000/svg" width="1011" height="468" viewBox="0 0 1011 468" fill="none">
  <path d="M 115.106 0 C 135.453 0 154.347 3.778 171.787 11.333 L 171.787 65.093 L 155.509 65.093 L 142.139 22.085 C 136.906 21.31 131.577 20.923 126.152 20.923 C 102.704 20.923 84.295 28.188 70.924 42.718 C 57.553 57.247 50.868 78.364 50.868 106.067 C 50.868 162.83 74.024 191.212 120.338 191.212 C 123.245 191.212 126.055 191.115 128.768 190.921 L 128.768 135.708 L 95.631 125.537 L 95.631 112.17 L 197.657 112.17 L 197.657 125.537 L 176.147 135.708 L 176.147 197.895 C 172.272 199.833 167.718 201.673 162.486 203.417 C 157.253 205.16 151.634 206.613 145.627 207.776 C 139.619 209.132 133.515 210.197 127.314 210.972 C 121.113 211.747 115.106 212.135 109.293 212.135 C 74.993 212.135 48.639 202.932 30.23 184.528 C 11.821 166.124 2.616 139.97 2.616 106.067 C 2.616 72.165 12.305 46.011 31.683 27.607 C 51.061 9.202 78.869 0 115.106 0 Z" fill="currentColor" fill-rule="nonzero"></path>
  <path d="M 211.759 207.776 L 211.759 191.502 L 238.501 185.109 L 238.501 27.025 L 211.759 20.632 L 211.759 4.359 L 302.739 4.359 C 329.675 4.359 349.828 9.299 363.199 19.179 C 376.764 28.866 383.546 42.718 383.546 60.734 C 383.546 72.939 380.058 83.595 373.082 92.7 C 366.106 101.805 356.514 108.198 344.305 111.879 L 384.999 185.4 L 412.904 192.374 L 412.904 207.776 L 342.271 207.776 L 296.054 119.725 L 285.88 119.725 L 285.88 185.109 L 311.169 191.502 L 311.169 207.776 L 211.759 207.776 Z M 285.88 99.384 L 294.31 99.384 C 307.875 99.384 318.242 95.896 325.412 88.922 C 332.582 81.948 336.167 72.552 336.167 60.734 C 336.167 50.079 332.485 41.555 325.121 35.162 C 317.757 28.769 307.39 25.572 294.019 25.572 L 285.88 25.572 L 285.88 99.384 Z" fill="currentColor" fill-rule="nonzero"></path>
  <path d="M 419.26 207.776 L 419.26 191.502 L 446.002 185.109 L 446.002 27.025 L 419.26 20.632 L 419.26 4.359 L 573.607 4.359 L 573.607 63.931 L 556.457 63.931 L 544.83 26.735 L 493.382 26.735 L 493.382 94.153 L 547.446 89.213 L 547.446 117.982 L 493.382 113.623 L 493.382 185.4 L 545.412 185.4 L 565.177 145.007 L 582.327 145.007 L 573.607 207.776 L 419.26 207.776 Z" fill="currentColor" fill-rule="nonzero"></path>
  <path d="M 602.349 207.776 L 602.349 191.502 L 629.091 185.109 L 629.091 27.025 L 602.349 20.632 L 602.349 4.359 L 756.696 4.359 L 756.696 63.931 L 739.547 63.931 L 727.92 26.735 L 676.471 26.735 L 676.471 94.153 L 730.536 89.213 L 730.536 117.982 L 676.471 113.623 L 676.471 185.4 L 728.501 185.4 L 748.267 145.007 L 765.416 145.007 L 756.696 207.776 L 602.349 207.776 Z" fill="currentColor" fill-rule="nonzero"></path>
  <path d="M 785.439 207.776 L 785.439 191.502 L 812.18 185.109 L 812.18 27.025 L 785.439 20.632 L 785.439 4.359 L 835.434 4.359 L 960.132 140.939 L 960.132 27.025 L 933.391 20.632 L 933.391 4.359 L 1011 4.359 L 1011 20.632 L 984.258 27.025 L 984.258 207.776 L 956.063 207.776 L 835.434 75.845 L 835.434 185.109 L 862.176 191.502 L 862.176 207.776 L 785.439 207.776 Z" fill="currentColor" fill-rule="nonzero"></path>
  <path d="M 0 468 L 0 451.727 L 26.742 445.334 L 26.742 287.25 L 0 280.857 L 0 264.583 L 82.26 264.583 C 110.358 264.583 132.159 269.523 147.661 279.404 C 163.164 289.09 170.915 305.363 170.915 328.224 C 170.915 339.847 168.396 350.018 163.358 358.736 C 158.513 367.26 151.828 374.041 143.301 379.078 C 134.775 383.921 125.376 387.602 115.106 390.12 C 104.836 392.445 93.693 393.608 81.679 393.608 L 74.121 393.608 L 74.121 445.334 L 109.583 451.727 L 109.583 468 L 0 468 Z M 74.121 372.394 L 80.225 372.394 C 92.046 372.394 102.026 368.713 110.165 361.352 C 118.497 353.796 122.664 342.753 122.664 328.224 C 122.664 314.275 118.788 303.717 111.037 296.549 C 103.479 289.381 93.887 285.797 82.26 285.797 L 74.121 285.797 L 74.121 372.394 Z" fill="currentColor" fill-rule="nonzero"></path>
  <path d="M 185.076 468 L 185.076 451.727 L 211.818 445.334 L 211.818 287.25 L 185.076 280.857 L 185.076 264.583 L 285.939 264.583 L 285.939 280.857 L 259.198 287.25 L 259.198 445.334 L 285.939 451.727 L 285.939 468 L 185.076 468 Z" fill="currentColor" fill-rule="nonzero"></path>
  <path d="M 305.149 468 L 305.149 451.727 L 331.891 445.334 L 331.891 287.25 L 305.149 280.857 L 305.149 264.583 L 406.012 264.583 L 406.012 280.857 L 379.27 287.25 L 379.27 445.624 L 432.172 445.624 L 451.938 405.231 L 468.216 405.231 L 459.495 468 L 305.149 468 Z" fill="currentColor" fill-rule="nonzero"></path>
  <path d="M 480.574 468 L 480.574 451.727 L 507.316 445.334 L 507.316 287.25 L 480.574 280.857 L 480.574 264.583 L 581.437 264.583 L 581.437 280.857 L 554.695 287.25 L 554.695 445.624 L 607.597 445.624 L 627.363 405.231 L 643.641 405.231 L 634.92 468 L 480.574 468 Z" fill="currentColor" fill-rule="nonzero"></path>
</svg>